<svg width="20" height="249" viewBox="0 0 20 249" fill="none" xmlns="http://www.w3.org/2000/svg">
<rect x="9" y="100" width="2" height="149" fill="white" fill-opacity="0.4"/>
<path d="M10.5 74.285C11.145 74.42 11.655 74.72 12.03 75.185C12.405 75.65 12.585 76.22 12.585 76.925C12.585 77.705 12.315 78.335 11.79 78.815C11.265 79.295 10.59 79.535 9.765 79.535C8.925 79.535 8.235 79.295 7.71 78.8C7.17 78.305 6.9 77.675 6.9 76.91C6.9 76.295 7.065 75.755 7.395 75.305C7.725 74.855 8.175 74.54 8.76 74.345V71.36C7.425 71.585 6.345 72.2 5.52 73.205C4.695 74.21 4.29 75.44 4.29 76.895C4.29 78.515 4.815 79.85 5.85 80.885C6.885 81.92 8.19 82.445 9.765 82.445C11.34 82.445 12.645 81.92 13.68 80.885C14.715 79.85 15.24 78.515 15.24 76.895C15.24 75.41 14.805 74.15 13.935 73.13C13.065 72.11 11.925 71.51 10.53 71.33L10.5 74.285ZM15 49.09H12.465V53.035H4.455V55.81H15V49.09ZM11.34 34.493H13.44V29.423H15V26.708H13.44V25.718H10.965V26.708H8.655L9.285 29.423H10.965V31.223L4.455 27.713V30.908L11.34 34.493ZM15 7.61586H9.21L15 4.09086V1.43586H4.455L4.455 4.04586H10.29L4.455 7.60086V10.2259H15V7.61586Z" fill="white"/>
</svg>
