<svg width="1355" height="143" viewBox="0 0 1355 143" fill="none" xmlns="http://www.w3.org/2000/svg">
<rect x="609" y="1" width="141" height="141" fill="#3D3D3D"/>
<path d="M637.53 62V49.73L643.5 62.03H645.66L651.63 49.85V62H657V40.91H650.46L644.7 52.73L639.03 40.91H632.16V62H637.53ZM665.45 51.44C665.45 54.59 666.5 57.2 668.6 59.27C670.73 61.34 673.43 62.39 676.7 62.39C680.03 62.39 682.76 61.34 684.89 59.27C687.02 57.2 688.07 54.59 688.07 51.44C688.07 48.29 687.02 45.68 684.89 43.61C682.76 41.54 680.03 40.49 676.7 40.49C673.43 40.49 670.73 41.54 668.6 43.61C666.5 45.68 665.45 48.29 665.45 51.44ZM682.25 51.47C682.25 53.18 681.74 54.53 680.72 55.58C679.7 56.63 678.35 57.17 676.7 57.17C675.05 57.17 673.73 56.63 672.74 55.58C671.75 54.53 671.24 53.15 671.24 51.47C671.24 49.82 671.75 48.44 672.77 47.36C673.79 46.28 675.11 45.74 676.73 45.74C678.38 45.74 679.7 46.28 680.72 47.36C681.74 48.44 682.25 49.82 682.25 51.47ZM702.087 62V54.17H709.707V49.19H702.087V45.98H710.427V40.91H696.537V62H702.087ZM726.545 62V40.91H718.535L717.275 45.98H720.995V62H726.545ZM647.43 95C647.16 96.29 646.56 97.31 645.63 98.06C644.7 98.81 643.56 99.17 642.15 99.17C640.59 99.17 639.33 98.63 638.37 97.58C637.41 96.53 636.93 95.18 636.93 93.53C636.93 91.85 637.41 90.47 638.4 89.42C639.39 88.34 640.65 87.8 642.18 87.8C643.41 87.8 644.49 88.13 645.39 88.79C646.29 89.45 646.92 90.35 647.31 91.52H653.28C652.83 88.85 651.6 86.69 649.59 85.04C647.58 83.39 645.12 82.58 642.21 82.58C638.97 82.58 636.3 83.63 634.23 85.7C632.16 87.77 631.11 90.38 631.11 93.53C631.11 96.68 632.16 99.29 634.23 101.36C636.3 103.43 638.97 104.48 642.21 104.48C645.18 104.48 647.7 103.61 649.74 101.87C651.78 100.13 652.98 97.85 653.34 95.06L647.43 95ZM675.02 104V98.93H667.13V82.91H661.58V104H675.02ZM681.414 96.68V100.88H691.554V104H696.984V100.88H698.964V95.93H696.984V91.31L691.554 92.57V95.93H687.954L694.974 82.91H688.584L681.414 96.68ZM712.368 104V92.42L719.418 104H724.728V82.91H719.508V94.58L712.398 82.91H707.148V104H712.368Z" fill="#F5F5F5"/>
<path d="M270.1 114V73.1L290 114.1H297.2L317.1 73.5V114H335V43.7H313.2L294 83.1L275.1 43.7H252.2V114H270.1ZM363.168 78.8C363.168 89.3 366.668 98 373.668 104.9C380.768 111.8 389.768 115.3 400.668 115.3C411.768 115.3 420.868 111.8 427.968 104.9C435.068 98 438.568 89.3 438.568 78.8C438.568 68.3 435.068 59.6 427.968 52.7C420.868 45.8 411.768 42.3 400.668 42.3C389.768 42.3 380.768 45.8 373.668 52.7C366.668 59.6 363.168 68.3 363.168 78.8ZM419.168 78.9C419.168 84.6 417.468 89.1 414.068 92.6C410.668 96.1 406.168 97.9 400.668 97.9C395.168 97.9 390.768 96.1 387.468 92.6C384.168 89.1 382.468 84.5 382.468 78.9C382.468 73.4 384.168 68.8 387.568 65.2C390.968 61.6 395.368 59.8 400.768 59.8C406.268 59.8 410.668 61.6 414.068 65.2C417.468 68.8 419.168 73.4 419.168 78.9ZM485.29 114V87.9H510.69V71.3H485.29V60.6H513.09V43.7H466.79V114H485.29ZM566.816 114V43.7H540.116L535.916 60.6H548.316V114H566.816Z" fill="#3D3D3D" fill-opacity="0.06"/>
<path d="M807.7 100V103H810.7V100H807.7ZM807.7 73.9V70.9H804.7V73.9H807.7ZM833.1 73.9V76.9H836.1V73.9H833.1ZM833.1 57.3H836.1V54.3H833.1V57.3ZM807.7 57.3H804.7V60.3H807.7V57.3ZM807.7 46.6V43.6H804.7V46.6H807.7ZM835.5 46.6V49.6H838.5V46.6H835.5ZM835.5 29.7H838.5V26.7H835.5V29.7ZM789.2 29.7V26.7H786.2V29.7H789.2ZM789.2 100H786.2V103H789.2V100ZM810.7 100V73.9H804.7V100H810.7ZM807.7 76.9H833.1V70.9H807.7V76.9ZM836.1 73.9V57.3H830.1V73.9H836.1ZM833.1 54.3H807.7V60.3H833.1V54.3ZM810.7 57.3V46.6H804.7V57.3H810.7ZM807.7 49.6H835.5V43.6H807.7V49.6ZM838.5 46.6V29.7H832.5V46.6H838.5ZM835.5 26.7H789.2V32.7H835.5V26.7ZM786.2 29.7V100H792.2V29.7H786.2ZM789.2 103H807.7V97H789.2V103ZM870.043 90.9L867.937 93.0365L867.945 93.044L867.952 93.0514L870.043 90.9ZM924.343 90.9L926.434 93.0514L924.343 90.9ZM870.043 38.7L867.952 36.5486L867.945 36.556L867.937 36.5635L870.043 38.7ZM910.443 78.6L908.291 76.5096L908.291 76.5096L910.443 78.6ZM883.843 78.6L886.026 76.542L886.026 76.542L883.843 78.6ZM856.543 64.8C856.543 76.0423 860.323 85.5314 867.937 93.0365L872.149 88.7635C865.763 82.4686 862.543 74.5577 862.543 64.8H856.543ZM867.952 93.0514C875.664 100.546 885.437 104.3 897.043 104.3V98.3C886.848 98.3 878.622 95.0541 872.134 88.7486L867.952 93.0514ZM897.043 104.3C908.832 104.3 918.711 100.556 926.434 93.0514L922.252 88.7486C915.775 95.0435 907.454 98.3 897.043 98.3V104.3ZM926.434 93.0514C934.161 85.5423 937.943 76.0447 937.943 64.8H931.943C931.943 74.5553 928.725 82.4577 922.252 88.7486L926.434 93.0514ZM937.943 64.8C937.943 53.5553 934.161 44.0577 926.434 36.5486L922.252 40.8514C928.725 47.1423 931.943 55.0447 931.943 64.8H937.943ZM926.434 36.5486C918.711 29.0435 908.832 25.3 897.043 25.3V31.3C907.454 31.3 915.775 34.5565 922.252 40.8514L926.434 36.5486ZM897.043 25.3C885.437 25.3 875.664 29.0541 867.952 36.5486L872.134 40.8514C878.622 34.5459 886.848 31.3 897.043 31.3V25.3ZM867.937 36.5635C860.323 44.0686 856.543 53.5577 856.543 64.8H862.543C862.543 55.0423 865.763 47.1314 872.149 40.8365L867.937 36.5635ZM912.543 64.9C912.543 69.9439 911.066 73.6529 908.291 76.5096L912.595 80.6904C916.62 76.5471 918.543 71.2561 918.543 64.9H912.543ZM908.291 76.5096C905.522 79.3604 901.832 80.9 897.043 80.9V86.9C903.254 86.9 908.564 84.8396 912.595 80.6904L908.291 76.5096ZM897.043 80.9C892.262 80.9 888.689 79.367 886.026 76.542L881.66 80.658C885.597 84.833 890.824 86.9 897.043 86.9V80.9ZM886.026 76.542C883.328 73.6804 881.843 69.8552 881.843 64.9H875.843C875.843 71.1448 877.758 76.5196 881.66 80.658L886.026 76.542ZM881.843 64.9C881.843 60.0658 883.315 56.2341 886.124 53.2599L881.762 49.1401C877.771 53.3659 875.843 58.7342 875.843 64.9H881.843ZM886.124 53.2599C888.903 50.3177 892.485 48.8 897.143 48.8V42.8C891.001 42.8 885.783 44.8822 881.762 49.1401L886.124 53.2599ZM897.143 48.8C901.91 48.8 905.489 50.3237 908.262 53.2599L912.624 49.1401C908.597 44.8763 903.376 42.8 897.143 42.8V48.8ZM908.262 53.2599C911.071 56.2341 912.543 60.0658 912.543 64.9H918.543C918.543 58.7342 916.615 53.3659 912.624 49.1401L908.262 53.2599ZM981.665 100V103H984.665V100H981.665ZM981.665 75.3V72.3H978.665V75.3H981.665ZM984.665 75.3L987.164 73.6406L986.274 72.3H984.665V75.3ZM1001.06 100L998.566 101.659L999.456 103H1001.06V100ZM1023.46 100V103H1029.19L1025.93 98.2938L1023.46 100ZM1004.86 73.1L1003.82 70.286L1000.2 71.6262L1002.4 74.8062L1004.86 73.1ZM1015.76 65.1L1018.19 66.8684L1018.19 66.8624L1018.2 66.8565L1015.76 65.1ZM963.165 29.7V26.7H960.165V29.7H963.165ZM963.165 100H960.165V103H963.165V100ZM991.465 45.8V42.8H991.45L991.435 42.8001L991.465 45.8ZM997.865 47.7L995.9 49.9671L995.936 49.9983L995.973 50.0283L997.865 47.7ZM997.865 58.3L999.687 60.6831L999.722 60.6562L999.757 60.6283L997.865 58.3ZM981.565 60.3H978.565V63.3H981.565V60.3ZM981.565 45.9L981.535 42.9002L978.565 42.9302V45.9H981.565ZM984.665 100V75.3H978.665V100H984.665ZM981.665 78.3H984.665V72.3H981.665V78.3ZM982.166 76.9594L998.566 101.659L1003.56 98.3406L987.164 73.6406L982.166 76.9594ZM1001.06 103H1023.46V97H1001.06V103ZM1025.93 98.2938L1007.33 71.3938L1002.4 74.8062L1021 101.706L1025.93 98.2938ZM1005.9 75.914C1010.99 74.0329 1015.1 71.0979 1018.19 66.8684L1013.34 63.3316C1011.03 66.5021 1007.94 68.7671 1003.82 70.286L1005.9 75.914ZM1018.2 66.8565C1021.21 62.6871 1022.66 57.7549 1022.66 52.3H1016.66C1016.66 56.6451 1015.52 60.3129 1013.33 63.3435L1018.2 66.8565ZM1022.66 52.3C1022.66 44.5654 1019.81 38.1762 1013.94 33.4619L1010.19 38.1381C1014.52 41.6238 1016.66 46.2346 1016.66 52.3H1022.66ZM1013.94 33.4619C1008.19 28.8389 1000.98 26.7 992.465 26.7V32.7C999.949 32.7 1005.74 34.5611 1010.19 38.1381L1013.94 33.4619ZM992.465 26.7H963.165V32.7H992.465V26.7ZM960.165 29.7V100H966.165V29.7H960.165ZM963.165 103H981.665V97H963.165V103ZM991.465 48.8C993.791 48.8 995.161 49.3263 995.9 49.9671L999.83 45.4329C997.569 43.4737 994.539 42.8 991.465 42.8V48.8ZM995.973 50.0283C996.82 50.7162 997.265 51.6338 997.265 52.9H1003.26C1003.26 49.9662 1002.11 47.2838 999.757 45.3717L995.973 50.0283ZM997.265 52.9C997.265 54.415 996.785 55.312 995.973 55.9717L999.757 60.6283C1002.14 58.688 1003.26 55.985 1003.26 52.9H997.265ZM996.042 55.9169C994.938 56.7617 993.503 57.3 991.365 57.3V63.3C994.627 63.3 997.392 62.4383 999.687 60.6831L996.042 55.9169ZM991.365 57.3H981.565V63.3H991.365V57.3ZM984.565 60.3V45.9H978.565V60.3H984.565ZM981.595 48.8998L991.495 48.7998L991.435 42.8001L981.535 42.9002L981.595 48.8998ZM1096.51 100V103H1099.51V100H1096.51ZM1096.51 83.1H1099.51V80.1H1096.51V83.1ZM1068.21 83.1H1065.21V86.1H1068.21V83.1ZM1068.21 72.4V69.4H1065.21V72.4H1068.21ZM1093.61 72.4V75.4H1096.61V72.4H1093.61ZM1093.61 56.5H1096.61V53.5H1093.61V56.5ZM1068.21 56.5H1065.21V59.5H1068.21V56.5ZM1068.21 46.6V43.6H1065.21V46.6H1068.21ZM1096.01 46.6V49.6H1099.01V46.6H1096.01ZM1096.01 29.7H1099.01V26.7H1096.01V29.7ZM1049.71 29.7V26.7H1046.71V29.7H1049.71ZM1049.71 100H1046.71V103H1049.71V100ZM1099.51 100V83.1H1093.51V100H1099.51ZM1096.51 80.1H1068.21V86.1H1096.51V80.1ZM1071.21 83.1V72.4H1065.21V83.1H1071.21ZM1068.21 75.4H1093.61V69.4H1068.21V75.4ZM1096.61 72.4V56.5H1090.61V72.4H1096.61ZM1093.61 53.5H1068.21V59.5H1093.61V53.5ZM1071.21 56.5V46.6H1065.21V56.5H1071.21ZM1068.21 49.6H1096.01V43.6H1068.21V49.6ZM1099.01 46.6V29.7H1093.01V46.6H1099.01ZM1096.01 26.7H1049.71V32.7H1096.01V26.7ZM1046.71 29.7V100H1052.71V29.7H1046.71ZM1049.71 103H1096.51V97H1049.71V103ZM1163.09 100V103H1165.28L1165.95 100.926L1163.09 100ZM1185.89 29.7L1188.75 30.6255L1190.02 26.7H1185.89V29.7ZM1166.39 29.7V26.7H1164.14L1163.51 28.8698L1166.39 29.7ZM1153.69 73.8L1150.81 74.6181L1153.67 84.7202L1156.58 74.6302L1153.69 73.8ZM1141.19 29.7L1144.08 28.8819L1143.46 26.7H1141.19V29.7ZM1120.59 29.7V26.7H1116.47L1117.74 30.6218L1120.59 29.7ZM1143.29 100L1140.44 100.922L1141.11 103H1143.29V100ZM1165.95 100.926L1188.75 30.6255L1183.04 28.7745L1160.24 99.0745L1165.95 100.926ZM1185.89 26.7H1166.39V32.7H1185.89V26.7ZM1163.51 28.8698L1150.81 72.9698L1156.58 74.6302L1169.28 30.5302L1163.51 28.8698ZM1156.58 72.9819L1144.08 28.8819L1138.31 30.5181L1150.81 74.6181L1156.58 72.9819ZM1141.19 26.7H1120.59V32.7H1141.19V26.7ZM1117.74 30.6218L1140.44 100.922L1146.15 99.0782L1123.45 28.7782L1117.74 30.6218ZM1143.29 103H1163.09V97H1143.29V103ZM1259.05 100V103H1262.05V100H1259.05ZM1259.05 83.1H1262.05V80.1H1259.05V83.1ZM1230.75 83.1H1227.75V86.1H1230.75V83.1ZM1230.75 72.4V69.4H1227.75V72.4H1230.75ZM1256.15 72.4V75.4H1259.15V72.4H1256.15ZM1256.15 56.5H1259.15V53.5H1256.15V56.5ZM1230.75 56.5H1227.75V59.5H1230.75V56.5ZM1230.75 46.6V43.6H1227.75V46.6H1230.75ZM1258.55 46.6V49.6H1261.55V46.6H1258.55ZM1258.55 29.7H1261.55V26.7H1258.55V29.7ZM1212.25 29.7V26.7H1209.25V29.7H1212.25ZM1212.25 100H1209.25V103H1212.25V100ZM1262.05 100V83.1H1256.05V100H1262.05ZM1259.05 80.1H1230.75V86.1H1259.05V80.1ZM1233.75 83.1V72.4H1227.75V83.1H1233.75ZM1230.75 75.4H1256.15V69.4H1230.75V75.4ZM1259.15 72.4V56.5H1253.15V72.4H1259.15ZM1256.15 53.5H1230.75V59.5H1256.15V53.5ZM1233.75 56.5V46.6H1227.75V56.5H1233.75ZM1230.75 49.6H1258.55V43.6H1230.75V49.6ZM1261.55 46.6V29.7H1255.55V46.6H1261.55ZM1258.55 26.7H1212.25V32.7H1258.55V26.7ZM1209.25 29.7V100H1215.25V29.7H1209.25ZM1212.25 103H1259.05V97H1212.25V103ZM1307.13 100V103H1310.13V100H1307.13ZM1307.13 75.3V72.3H1304.13V75.3H1307.13ZM1310.13 75.3L1312.63 73.6406L1311.74 72.3H1310.13V75.3ZM1326.53 100L1324.03 101.659L1324.92 103H1326.53V100ZM1348.93 100V103H1354.66L1351.4 98.2938L1348.93 100ZM1330.33 73.1L1329.29 70.286L1325.67 71.6262L1327.87 74.8062L1330.33 73.1ZM1341.23 65.1L1343.66 66.8684L1343.66 66.8624L1343.67 66.8565L1341.23 65.1ZM1288.63 29.7V26.7H1285.63V29.7H1288.63ZM1288.63 100H1285.63V103H1288.63V100ZM1316.93 45.8V42.8H1316.92L1316.9 42.8001L1316.93 45.8ZM1323.33 47.7L1321.37 49.9671L1321.4 49.9983L1321.44 50.0283L1323.33 47.7ZM1323.33 58.3L1325.16 60.6831L1325.19 60.6562L1325.23 60.6283L1323.33 58.3ZM1307.03 60.3H1304.03V63.3H1307.03V60.3ZM1307.03 45.9L1307 42.9002L1304.03 42.9302V45.9H1307.03ZM1310.13 100V75.3H1304.13V100H1310.13ZM1307.13 78.3H1310.13V72.3H1307.13V78.3ZM1307.63 76.9594L1324.03 101.659L1329.03 98.3406L1312.63 73.6406L1307.63 76.9594ZM1326.53 103H1348.93V97H1326.53V103ZM1351.4 98.2938L1332.8 71.3938L1327.87 74.8062L1346.47 101.706L1351.4 98.2938ZM1331.37 75.914C1336.46 74.0329 1340.57 71.0979 1343.66 66.8684L1338.81 63.3316C1336.5 66.5021 1333.4 68.7671 1329.29 70.286L1331.37 75.914ZM1343.67 66.8565C1346.68 62.6871 1348.13 57.7549 1348.13 52.3H1342.13C1342.13 56.6451 1340.99 60.3129 1338.8 63.3435L1343.67 66.8565ZM1348.13 52.3C1348.13 44.5654 1345.28 38.1762 1339.41 33.4619L1335.65 38.1381C1339.99 41.6238 1342.13 46.2346 1342.13 52.3H1348.13ZM1339.41 33.4619C1333.66 28.8389 1326.45 26.7 1317.93 26.7V32.7C1325.42 32.7 1331.2 34.5611 1335.65 38.1381L1339.41 33.4619ZM1317.93 26.7H1288.63V32.7H1317.93V26.7ZM1285.63 29.7V100H1291.63V29.7H1285.63ZM1288.63 103H1307.13V97H1288.63V103ZM1316.93 48.8C1319.26 48.8 1320.63 49.3263 1321.37 49.9671L1325.3 45.4329C1323.04 43.4737 1320.01 42.8 1316.93 42.8V48.8ZM1321.44 50.0283C1322.29 50.7162 1322.73 51.6338 1322.73 52.9H1328.73C1328.73 49.9662 1327.58 47.2838 1325.23 45.3717L1321.44 50.0283ZM1322.73 52.9C1322.73 54.415 1322.25 55.312 1321.44 55.9717L1325.23 60.6283C1327.61 58.688 1328.73 55.985 1328.73 52.9H1322.73ZM1321.51 55.9169C1320.41 56.7617 1318.97 57.3 1316.83 57.3V63.3C1320.1 63.3 1322.86 62.4383 1325.16 60.6831L1321.51 55.9169ZM1316.83 57.3H1307.03V63.3H1316.83V57.3ZM1310.03 60.3V45.9H1304.03V60.3H1310.03ZM1307.06 48.8998L1316.96 48.7998L1316.9 42.8001L1307 42.9002L1307.06 48.8998Z" fill="#3D3D3D" fill-opacity="0.06"/>
<line x1="786" y1="0.5" x2="1353" y2="0.50888" stroke="black" stroke-opacity="0.1"/>
<line x1="7.83072e-06" y1="141.5" x2="567" y2="141.509" stroke="black" stroke-opacity="0.1"/>
</svg>
