<svg width="141" height="141" viewBox="0 0 141 141" fill="none" xmlns="http://www.w3.org/2000/svg">
<rect width="141" height="141" fill="#3D3D3D"/>
<path d="M28.53 61V48.73L34.5 61.03H36.66L42.63 48.85V61H48V39.91H41.46L35.7 51.73L30.03 39.91H23.16V61H28.53ZM56.4504 50.44C56.4504 53.59 57.5004 56.2 59.6004 58.27C61.7304 60.34 64.4304 61.39 67.7004 61.39C71.0304 61.39 73.7604 60.34 75.8904 58.27C78.0204 56.2 79.0704 53.59 79.0704 50.44C79.0704 47.29 78.0204 44.68 75.8904 42.61C73.7604 40.54 71.0304 39.49 67.7004 39.49C64.4304 39.49 61.7304 40.54 59.6004 42.61C57.5004 44.68 56.4504 47.29 56.4504 50.44ZM73.2504 50.47C73.2504 52.18 72.7404 53.53 71.7204 54.58C70.7004 55.63 69.3504 56.17 67.7004 56.17C66.0504 56.17 64.7304 55.63 63.7404 54.58C62.7504 53.53 62.2404 52.15 62.2404 50.47C62.2404 48.82 62.7504 47.44 63.7704 46.36C64.7904 45.28 66.1104 44.74 67.7304 44.74C69.3804 44.74 70.7004 45.28 71.7204 46.36C72.7404 47.44 73.2504 48.82 73.2504 50.47ZM93.087 61V53.17H100.707V48.19H93.087V44.98H101.427V39.91H87.537V61H93.087ZM117.545 61V39.91H109.535L108.275 44.98H111.995V61H117.545ZM38.43 94C38.16 95.29 37.56 96.31 36.63 97.06C35.7 97.81 34.56 98.17 33.15 98.17C31.59 98.17 30.33 97.63 29.37 96.58C28.41 95.53 27.93 94.18 27.93 92.53C27.93 90.85 28.41 89.47 29.4 88.42C30.39 87.34 31.65 86.8 33.18 86.8C34.41 86.8 35.49 87.13 36.39 87.79C37.29 88.45 37.92 89.35 38.31 90.52H44.28C43.83 87.85 42.6 85.69 40.59 84.04C38.58 82.39 36.12 81.58 33.21 81.58C29.97 81.58 27.3 82.63 25.23 84.7C23.16 86.77 22.11 89.38 22.11 92.53C22.11 95.68 23.16 98.29 25.23 100.36C27.3 102.43 29.97 103.48 33.21 103.48C36.18 103.48 38.7 102.61 40.74 100.87C42.78 99.13 43.98 96.85 44.34 94.06L38.43 94ZM66.0199 103V97.93H58.1299V81.91H52.5799V103H66.0199ZM72.4139 95.68V99.88H82.5539V103H87.9839V99.88H89.9639V94.93H87.9839V90.31L82.5539 91.57V94.93H78.9539L85.9739 81.91H79.5839L72.4139 95.68ZM103.368 103V91.42L110.418 103H115.728V81.91H110.508V93.58L103.398 81.91H98.1483V103H103.368Z" fill="#F5F5F5"/>
</svg>
