<svg width="253" height="60" viewBox="0 0 253 60" fill="none" xmlns="http://www.w3.org/2000/svg">
<path d="M15.08 58V25.28L31 58.08H36.76L52.68 25.6V58H67V1.76H49.56L34.2 33.28L19.08 1.76H0.76V58H15.08ZM89.5344 29.84C89.5344 38.24 92.3344 45.2 97.9344 50.72C103.614 56.24 110.814 59.04 119.534 59.04C128.414 59.04 135.694 56.24 141.374 50.72C147.054 45.2 149.854 38.24 149.854 29.84C149.854 21.44 147.054 14.48 141.374 8.96C135.694 3.44 128.414 0.639999 119.534 0.639999C110.814 0.639999 103.614 3.44 97.9344 8.96C92.3344 14.48 89.5344 21.44 89.5344 29.84ZM134.334 29.92C134.334 34.48 132.974 38.08 130.254 40.88C127.534 43.68 123.934 45.12 119.534 45.12C115.134 45.12 111.614 43.68 108.974 40.88C106.334 38.08 104.974 34.4 104.974 29.92C104.974 25.52 106.334 21.84 109.054 18.96C111.774 16.08 115.294 14.64 119.614 14.64C124.014 14.64 127.534 16.08 130.254 18.96C132.974 21.84 134.334 25.52 134.334 29.92ZM187.232 58V37.12H207.552V23.84H187.232V15.28H209.472V1.76H172.432V58H187.232ZM252.453 58V1.76H231.093L227.733 15.28H237.653V58H252.453Z" fill="#3D3D3D"/>
</svg>
