<svg width="317" height="126" viewBox="0 0 317 126" fill="none" xmlns="http://www.w3.org/2000/svg">
<path d="M8.784 12V6.612L11.376 12.012H12.12L14.712 6.672V12H16.56V3.564H14.316L11.784 8.82L9.288 3.564H6.936V12H8.784ZM40.5121 7.776C40.5121 9.036 40.9321 10.08 41.7721 10.908C42.6241 11.736 43.6921 12.156 44.9881 12.156C46.2961 12.156 47.3761 11.736 48.2281 10.896C49.0801 10.056 49.5001 9.012 49.5001 7.764C49.5001 6.504 49.0801 5.472 48.2281 4.644C47.3761 3.816 46.2961 3.396 44.9881 3.396C43.6801 3.396 42.6121 3.816 41.7601 4.644C40.9201 5.472 40.5001 6.516 40.5001 7.764L40.5121 7.776ZM47.4961 7.776C47.4961 8.508 47.2561 9.12 46.7881 9.612C46.3201 10.092 45.7201 10.332 44.9881 10.332C44.2561 10.332 43.6561 10.092 43.1881 9.612C42.7201 9.144 42.4921 8.532 42.4921 7.776C42.4921 7.032 42.7201 6.42 43.1881 5.928C43.6561 5.436 44.2561 5.196 44.9881 5.196C45.7201 5.196 46.3201 5.448 46.7881 5.94C47.2561 6.432 47.4961 7.044 47.4961 7.776ZM76.6169 12V5.304H78.8849V3.564H72.4529V5.304H74.7089V12H76.6169ZM101.839 7.776C101.839 9.036 102.259 10.08 103.099 10.908C103.951 11.736 105.019 12.156 106.315 12.156C107.623 12.156 108.703 11.736 109.555 10.896C110.407 10.056 110.827 9.012 110.827 7.764C110.827 6.504 110.407 5.472 109.555 4.644C108.703 3.816 107.623 3.396 106.315 3.396C105.007 3.396 103.939 3.816 103.087 4.644C102.247 5.472 101.827 6.516 101.827 7.764L101.839 7.776ZM108.823 7.776C108.823 8.508 108.583 9.12 108.115 9.612C107.647 10.092 107.047 10.332 106.315 10.332C105.583 10.332 104.983 10.092 104.515 9.612C104.047 9.144 103.819 8.532 103.819 7.776C103.819 7.032 104.047 6.42 104.515 5.928C104.983 5.436 105.583 5.196 106.315 5.196C107.047 5.196 107.647 5.448 108.115 5.94C108.583 6.432 108.823 7.044 108.823 7.776ZM142.905 7.548H138.729V9.036H141.105C140.949 9.468 140.673 9.804 140.253 10.056C139.845 10.296 139.353 10.416 138.789 10.416C138.045 10.416 137.445 10.176 136.989 9.684C136.533 9.192 136.305 8.556 136.305 7.776C136.305 7.032 136.521 6.42 136.965 5.928C137.409 5.436 137.985 5.196 138.693 5.196C139.185 5.196 139.617 5.316 139.989 5.544C140.361 5.772 140.637 6.096 140.817 6.54H142.917C142.689 5.604 142.197 4.848 141.417 4.26C140.649 3.684 139.737 3.396 138.681 3.396C137.397 3.396 136.353 3.816 135.525 4.656C134.697 5.508 134.277 6.54 134.277 7.776C134.277 9.036 134.673 10.08 135.465 10.908C136.257 11.736 137.277 12.156 138.513 12.156C139.101 12.156 139.641 12.048 140.109 11.832C140.577 11.616 140.961 11.304 141.273 10.896V11.988H142.857L142.905 7.548ZM168.976 12V9.252H170.44C171.388 9.252 172.18 8.988 172.792 8.46C173.404 7.932 173.704 7.236 173.704 6.36C173.704 5.508 173.404 4.836 172.792 4.332C172.18 3.828 171.388 3.576 170.44 3.576H167.068V12.012L168.976 12ZM170.332 5.256C170.752 5.256 171.088 5.364 171.34 5.568C171.592 5.772 171.712 6.048 171.712 6.396C171.712 6.768 171.592 7.056 171.34 7.272C171.088 7.488 170.752 7.596 170.332 7.596H168.976V5.268L170.332 5.256ZM224.31 2.28L221.466 13.68H223.29L226.134 2.28H224.31ZM276.806 12V8.724H280.046V7.008H276.806V5.304H280.334V3.564H274.898V12H276.806ZM307.014 12V3.564H303.954L303.522 5.304H305.106V12H307.014Z" fill="#FF99E2"/>
<path d="M24.096 97V57.736L43.2 97.096H50.112L69.216 58.12V97H86.4V29.512H65.472L47.04 67.336L28.896 29.512H6.912V97H24.096ZM113.441 63.208C113.441 73.288 116.801 81.64 123.521 88.264C130.337 94.888 138.977 98.248 149.441 98.248C160.097 98.248 168.833 94.888 175.649 88.264C182.465 81.64 185.825 73.288 185.825 63.208C185.825 53.128 182.465 44.776 175.649 38.152C168.833 31.528 160.097 28.168 149.441 28.168C138.977 28.168 130.337 31.528 123.521 38.152C116.801 44.776 113.441 53.128 113.441 63.208ZM167.201 63.304C167.201 68.776 165.569 73.096 162.305 76.456C159.041 79.816 154.721 81.544 149.441 81.544C144.161 81.544 139.937 79.816 136.769 76.456C133.601 73.096 131.969 68.68 131.969 63.304C131.969 58.024 133.601 53.608 136.865 50.152C140.129 46.696 144.353 44.968 149.537 44.968C154.817 44.968 159.041 46.696 162.305 50.152C165.569 53.608 167.201 58.024 167.201 63.304ZM230.678 97V71.944H255.062V56.008H230.678V45.736H257.366V29.512H212.918V97H230.678ZM308.944 97V29.512H283.312L279.28 45.736H291.184V97H308.944Z" fill="white"/>
</svg>
